; remixed by zumi in 2020
; from g/s

Music_CreditsG1:
	channel_count 3
	channel 1, Music_CreditsG1_Ch1
	channel 2, Music_CreditsG1_Ch2
	channel 3, Music_CreditsG1_Ch3

Music_CreditsG1_Ch1_sub_0:
	note A#, 2
	note F_, 2
	octave 4
	note C_, 2
	octave 3
	note F_, 2
	octave 4
	note D_, 2
	octave 3
	note F_, 2
	octave 4
	note F_, 2
	octave 3
	note F_, 2
	octave 4
	note E_, 10
	note D_, 2
	note C_, 2
	octave 3
	note A#, 2
	note A_, 2
	note F_, 2
	note A#, 2
	note F_, 2
	octave 4
	note C_, 2
	octave 3
	note F_, 2
	octave 4
	note E_, 2
	octave 3
	note F_, 2
	octave 4
	note D_, 10
	note D_, 2
	note C_, 2
	note D_, 2
	octave 3
	note A#, 6
	note F_, 6
	note A#, 2
	octave 4
	note D_, 2
	sound_ret
Music_CreditsG1_Ch1_sub_1:
	note A#, 2
	note G_, 2
	note F_, 2
	note D_, 2
	note A_, 2
	note D_, 2
	note F_, 2
	note D_, 2
	note E_, 2
	note F_, 2
	note G_, 4
	note F_, 4
	note E_, 4
	note C_, 4
	note D#, 6
	note G_, 4
	note F_, 4
	note D#, 2
	note D_, 6
	octave 2
	note A#, 6
	octave 3
	note D_, 4
	note C_, 16
	note G_, 2
	note C_, 2
	note E_, 2
	sound_ret
Music_CreditsG1_Ch1_sub_2:
	note G#, 4
	note A#, 4
	note B_, 4
	octave 3
	note C_, 4
	note D#, 4
	note G#, 4
	note G_, 4
	note G_, 4
	note F_, 4
	note F_, 4
	note E_, 4
	note E_, 4
	note D_, 4
	sound_ret
Music_CreditsG1_Ch1_sub_3:
	note F_, 4
	note E_, 2
	note F_, 2
	note A_, 2
	note G_, 2
	note F_, 2
	note G_, 2
	note E_, 4
	note G_, 4
	octave 4
	sound_ret
Music_CreditsG1_Ch1_sub_4:
	octave 4
	note C#, 2
	octave 3
	note G#, 2
	octave 4
	note D#, 2
	octave 3
	note G#, 2
	octave 4
	sound_ret
Music_CreditsG1_Ch1::
	tempo 137
	duty_cycle 3
	vibrato 8, 3, 4
	pitch_offset 1
	note_type 12, 11, 4
	rest 8
	octave 3
	sound_call Music_CreditsG1_Ch1_sub_3
	note C_, 2
	octave 3
	note G_, 2
	sound_call Music_CreditsG1_Ch1_sub_1
	note G_, 6
	note E_, 4
	sound_call Music_CreditsG1_Ch1_sub_3
	note C_, 4
	octave 3
	sound_call Music_CreditsG1_Ch1_sub_1
	note G_, 10
	sound_call Music_CreditsG1_Ch1_sub_0
	note C_, 2
	octave 3
	note A#, 2
	note A_, 2
	note G_, 2
	octave 4
	note C_, 2
	octave 3
	note A#, 2
	note A_, 2
	note G_, 2
	note A_, 6
	note F_, 6
	octave 4
	note C_, 4
	octave 3
	note A#, 4
	note A_, 4
	note G_, 4
	note A_, 4
	sound_call Music_CreditsG1_Ch1_sub_0
	note C_, 4
	octave 3
	note A#, 4
	note A_, 4
	note G_, 4
	octave 4
	note C_, 16
	note G_, 8
	octave 3
	note G_, 4
	note G#, 4
	note G#, 4
	note G_, 2
	note G#, 2
	octave 4
	note C_, 2
	octave 3
	note A#, 2
	note G#, 2
	note A#, 2
	note G_, 4
	note A#, 4
	octave 4
	note D#, 2
	octave 3
	note A#, 2
	octave 4
	note C#, 2
	octave 3
	note A#, 2
	note G#, 2
	note F_, 2
	octave 4
	note C_, 2
	octave 3
	note F_, 2
	note G#, 2
	note F_, 2
	note G_, 2
	note G#, 2
	note A#, 4
	note G#, 4
	note G_, 4
	note F_, 4
	note F#, 6
	note A#, 4
	note G#, 4
	note F#, 2
	note F_, 6
	note C#, 6
	note F_, 4
	note D#, 16
	note A#, 2
	note D#, 2
	note G_, 2
	note A#, 10
	sound_call Music_CreditsG1_Ch1_sub_4
	note F_, 2
	octave 3
	note G#, 2
	octave 4
	note G#, 2
	octave 3
	note G#, 2
	octave 4
	note G_, 10
	note F_, 2
	note D#, 2
	note C#, 2
	note C_, 2
	octave 3
	note G#, 2
	sound_call Music_CreditsG1_Ch1_sub_4
	note G_, 2
	octave 3
	note G#, 2
	octave 4
	note F_, 10
	note F_, 2
	note D#, 2
	note F_, 2
	note C#, 6
	octave 3
	note G#, 6
	octave 4
	note C#, 2
	note F_, 2
	note D#, 4
	note C#, 4
	note C_, 4
	octave 3
	note A#, 4
	octave 4
	note D#, 16
	note A#, 6
	note A_, 1
	note G#, 1
	note G_, 8
	rest 4
	octave 2
	sound_call Music_CreditsG1_Ch1_sub_2
	note C#, 4
	octave 2
	note A#, 4
	rest 4
	sound_call Music_CreditsG1_Ch1_sub_2
	note E_, 4
	note G_, 4
	note D#, 8
	note F#, 4
	note F_, 4
	note D#, 4
	note F_, 4
	note D#, 4
	note C#, 4
	note G#, 6
	note F_, 2
	note F_, 4
	note G#, 4
	note A#, 2
	rest 2
	note A#, 2
	rest 2
	note_type 8, 11, 4
	note A#, 2
	note A#, 2
	note A#, 2
	note A#, 2
	note A#, 2
	note A#, 2
	octave 4
	note C_, 12
	note_type 15, 11, 4
	octave 3
	note D#, 16
	sound_ret
Music_CreditsG1_Ch2_sub_0:
	octave 4
	note C_, 8
	note G_, 2
	note F_, 2
	note E_, 2
	note F_, 2
	note C_, 10
	octave 3
	note A_, 4
	note A#, 2
	octave 4
	note C_, 10
	note D_, 4
	octave 3
	note A_, 2
	octave 4
	note C_, 6
	octave 3
	note A#, 1
	note A_, 1
	note A#, 4
	note G_, 2
	note A_, 2
	note A#, 10
	octave 4
	note C_, 4
	octave 3
	note A#, 2
	note A_, 2
	note G#, 2
	note A_, 2
	octave 4
	note F_, 6
	note D#, 4
	octave 3
	note G_, 16
	octave 4
	sound_ret
Music_CreditsG1_Ch2_sub_1:
	note D_, 4
	note E_, 4
	note F_, 4
	note A_, 4
	note G_, 10
	note F_, 2
	note E_, 2
	note D_, 2
	note C_, 4
	note D_, 4
	note E_, 4
	note G_, 4
	note F_, 10
	note F_, 2
	note E_, 2
	note F_, 2
	note D_, 10
	note D_, 2
	note E_, 2
	note F_, 2
	note F_, 6
	note E_, 6
	note F_, 4
	sound_ret
Music_CreditsG1_Ch2_sub_2:
	note C_, 4
	note C#, 4
	note D_, 4
	note D#, 4
	note G#, 4
	octave 4
	note C_, 4
	octave 3
	note A#, 4
	note A#, 4
	note G#, 4
	note G#, 4
	note G_, 4
	note G_, 4
	note F_, 4
	sound_ret
Music_CreditsG1_Ch2::
	duty_cycle 3
	vibrato 10, 2, 5
	note_type 12, 12, 5
	octave 3
	note A_, 4
	note A#, 4
	sound_call Music_CreditsG1_Ch2_sub_0
	note C_, 12
	octave 3
	note A_, 2
	note A#, 2
	sound_call Music_CreditsG1_Ch2_sub_0
	note C_, 16
	sound_call Music_CreditsG1_Ch2_sub_1
	note C_, 8
	note_type 15, 12, 5
	note G_, 16
	note_type 12, 12, 5
	rest 4
	sound_call Music_CreditsG1_Ch2_sub_1
	note G_, 16
	octave 5
	note C_, 8
	octave 4
	note C_, 4
	note C#, 4
	note D#, 8
	note A#, 2
	note G#, 2
	note G_, 2
	note G#, 2
	note D#, 10
	note C_, 4
	note C#, 2
	note D#, 10
	note F_, 4
	note C_, 2
	note D#, 6
	note C#, 1
	note C_, 1
	note C#, 4
	octave 3
	note A#, 2
	octave 4
	note C_, 2
	note C#, 10
	note D#, 4
	note C#, 2
	note C_, 2
	octave 3
	note B_, 2
	octave 4
	note C_, 2
	note G#, 6
	note F#, 4
	octave 3
	note A#, 16
	octave 4
	note D#, 16
	note F_, 4
	note G_, 4
	note G#, 4
	octave 5
	note C_, 4
	octave 4
	note A#, 10
	note G#, 2
	note G_, 2
	note F_, 2
	note D#, 4
	note F_, 4
	note G_, 4
	note A#, 4
	note G#, 10
	note G#, 2
	note G_, 2
	note G#, 2
	note F_, 10
	note F_, 2
	note G_, 2
	note G#, 2
	note G#, 6
	note G_, 6
	note G#, 4
	note A#, 16
	octave 5
	note D#, 16
	rest 4
	octave 3
	sound_call Music_CreditsG1_Ch2_sub_2
	note E_, 4
	note G_, 4
	rest 4
	sound_call Music_CreditsG1_Ch2_sub_2
	note G_, 4
	note A#, 4
	note G#, 6
	octave 4
	note C_, 2
	note D#, 8
	octave 3
	note A#, 6
	octave 4
	note C#, 2
	note F#, 6
	note F_, 1
	note E_, 1
	note D#, 6
	octave 3
	note G#, 2
	note G#, 4
	octave 4
	note C_, 4
	note C#, 2
	rest 2
	note C#, 2
	rest 2
	note_type 8, 12, 3
	note C#, 2
	note C#, 2
	note C#, 2
	note C#, 2
	note C#, 2
	note D_, 2
	note D#, 12
	note_type 15, 12, 4
	octave 3
	note G#, 16
	sound_ret
Music_CreditsG1_Ch3_sub_0:
	octave 5
	note C_, 2
	octave 4
	note G_, 2
	octave 5
	note C_, 2
	octave 4
	note G_, 2
	octave 5
	note C_, 2
	octave 4
	note G_, 2
	octave 5
	note C_, 2
	octave 4
	sound_ret
Music_CreditsG1_Ch3_sub_1:
	note C_, 2
	note F_, 2
	note C_, 2
	note F_, 2
	note C_, 2
	note F_, 2
	note C_, 2
	note F_, 2
	note C_, 2
	note E_, 2
	note C_, 2
	note E_, 2
	note C_, 2
	note E_, 2
	note C_, 2
	note E_, 2
	note D_, 2
	note F_, 2
	note D_, 2
	note F_, 2
	note D_, 2
	note F_, 2
	note D_, 2
	note F_, 2
	note E_, 2
	note G_, 2
	note E_, 2
	note G_, 2
	note E_, 2
	note G_, 2
	note E_, 2
	note G_, 2
	note D#, 2
	note A#, 2
	note D#, 2
	note A#, 2
	note D#, 2
	note A#, 2
	note D#, 2
	note A#, 2
	note D_, 2
	note A_, 2
	note D_, 2
	note A_, 2
	note D_, 2
	note A_, 2
	note D_, 2
	note A_, 2
	note C_, 2
	note G_, 2
	note C_, 2
	note G_, 2
	note C_, 2
	note G_, 2
	note C_, 2
	note G_, 2
	note C_, 2
	sound_ret
Music_CreditsG1_Ch3_sub_2:
	octave 4
	note A#, 2
	octave 5
	note D#, 2
	octave 4
	note A#, 2
	octave 5
	note D#, 2
	octave 4
	note A#, 2
	octave 5
	note D#, 2
	octave 4
	note A#, 2
	octave 5
	note D#, 2
	sound_ret
Music_CreditsG1_Ch3_sub_3:
	note D#, 2
	note G#, 2
	note D#, 2
	note G#, 2
	note D#, 2
	note G#, 2
	note D#, 2
	note G#, 2
	note D#, 2
	note G_, 2
	note D#, 2
	note G_, 2
	note D#, 2
	note G_, 2
	note D#, 2
	note G_, 2
	sound_ret
Music_CreditsG1_Ch3_sub_4:
	note G#, 2
	octave 5
	note C#, 2
	octave 4
	note G#, 2
	octave 5
	note C#, 2
	octave 4
	note G#, 2
	octave 5
	note C#, 2
	octave 4
	note G#, 2
	octave 5
	note C#, 2
	sound_ret
Music_CreditsG1_Ch3_sub_5:
	note A_, 2
	note E_, 2
	note A_, 2
	note E_, 2
	note A_, 2
	note E_, 2
	note A_, 2
	note F_, 2
	note A#, 2
	note F_, 2
	note A#, 2
	note F_, 2
	note A#, 2
	note F_, 2
	note A#, 2
	note F_, 2
	note A#, 2
	note F_, 2
	note A#, 2
	note F_, 2
	note A#, 2
	note F_, 2
	note A#, 2
	note G_, 2
	sound_ret
Music_CreditsG1_Ch3_sub_6:
	note F_, 2
	note C#, 2
	note F_, 2
	note C#, 2
	note F_, 2
	note C#, 2
	note F_, 2
	note C#, 2
	note F_, 2
	note C#, 2
	note F_, 2
	sound_ret
Music_CreditsG1_Ch3_sub_7:
	note A#, 2
	note F_, 2
	note A#, 2
	note F_, 2
	note A#, 2
	note F_, 2
	note A#, 2
	note G_, 2
	sound_ret
Music_CreditsG1_Ch3_sub_8:
	octave 4
	note F_, 2
	octave 5
	note C_, 2
	octave 4
	note F_, 2
	octave 5
	note C_, 2
	sound_ret
Music_CreditsG1_Ch3::
	vibrato 0, 0, 0
	note_type 12, 1, 0
	octave 4
	note A_, 4
	note G_, 4
	sound_call Music_CreditsG1_Ch3_sub_1
	note G_, 2
	note C_, 2
	note G_, 2
	note C_, 2
	note G_, 2
	note C_, 2
	note G_, 2
	sound_call Music_CreditsG1_Ch3_sub_1
	octave 5
	note C_, 2
	octave 4
	note C_, 2
	octave 5
	note C_, 2
	octave 4
	note C_, 2
	octave 5
	note C_, 2
	octave 4
	note C_, 2
	octave 5
	note C_, 2
	octave 4
	note F_, 2
	sound_call Music_CreditsG1_Ch3_sub_7
	sound_call Music_CreditsG1_Ch3_sub_0
	note E_, 2
	sound_call Music_CreditsG1_Ch3_sub_5
	sound_call Music_CreditsG1_Ch3_sub_0
	note E_, 2
	note A_, 2
	note E_, 2
	note A_, 2
	note E_, 2
	note A_, 2
	note E_, 2
	note A_, 2
	note E_, 2
	note A_, 2
	note E_, 2
	note A_, 2
	octave 5
	note C_, 2
	octave 4
	note A#, 2
	note A_, 2
	note G_, 2
	note F_, 2
	sound_call Music_CreditsG1_Ch3_sub_7
	sound_call Music_CreditsG1_Ch3_sub_0
	note E_, 2
	sound_call Music_CreditsG1_Ch3_sub_5
	sound_call Music_CreditsG1_Ch3_sub_0
	note G_, 2
	sound_call Music_CreditsG1_Ch3_sub_0
	note G_, 2
	sound_call Music_CreditsG1_Ch3_sub_0
	sound_call Music_CreditsG1_Ch3_sub_3
	note F_, 2
	note G#, 2
	note F_, 2
	note G#, 2
	note F_, 2
	note G#, 2
	note F_, 2
	note G#, 2
	note G_, 2
	note A#, 2
	note G_, 2
	note A#, 2
	note G_, 2
	note A#, 2
	note G_, 2
	note A#, 2
	note F#, 2
	octave 5
	note C#, 2
	octave 4
	note F#, 2
	octave 5
	note C#, 2
	octave 4
	note F#, 2
	octave 5
	note C#, 2
	octave 4
	note F#, 2
	octave 5
	note C#, 2
	sound_call Music_CreditsG1_Ch3_sub_8
	sound_call Music_CreditsG1_Ch3_sub_8
	octave 4
	note D#, 2
	note A#, 2
	note D#, 2
	note A#, 2
	note D#, 2
	note A#, 2
	note D#, 2
	note A#, 2
	note D#, 2
	octave 5
	note D#, 2
	octave 4
	note D#, 2
	octave 5
	note D#, 2
	octave 4
	note D#, 2
	octave 5
	note D#, 2
	octave 4
	note D#, 2
	octave 5
	note D#, 2
	octave 4
	sound_call Music_CreditsG1_Ch3_sub_4
	sound_call Music_CreditsG1_Ch3_sub_2
	octave 4
	note G_, 2
	sound_call Music_CreditsG1_Ch3_sub_0
	sound_call Music_CreditsG1_Ch3_sub_4
	octave 4
	sound_call Music_CreditsG1_Ch3_sub_4
	sound_call Music_CreditsG1_Ch3_sub_2
	sound_call Music_CreditsG1_Ch3_sub_2
	sound_call Music_CreditsG1_Ch3_sub_2
	octave 4
	sound_call Music_CreditsG1_Ch3_sub_3
	note C#, 2
	sound_call Music_CreditsG1_Ch3_sub_6
	note D#, 2
	note G_, 2
	note D#, 2
	note G_, 2
	sound_call Music_CreditsG1_Ch3_sub_3
	note C#, 2
	sound_call Music_CreditsG1_Ch3_sub_6
	note C#, 2
	note F_, 2
	note C#, 2
	note F_, 2
	note D#, 4
	note G#, 4
	note D#, 4
	note G#, 4
	note D#, 4
	note A#, 4
	note D#, 4
	note A#, 4
	note G#, 2
	octave 5
	note C_, 2
	octave 4
	note G#, 2
	octave 5
	note C_, 2
	octave 4
	note G#, 2
	octave 5
	note C_, 2
	octave 4
	note A#, 2
	note G#, 2
	note A#, 2
	rest 2
	note A#, 2
	rest 2
	note A#, 4
	note A#, 2
	rest 2
	note G#, 4
	rest 4
	octave 3
	note G#, 8
	sound_ret
