Music_ProfBattle::
	channel_count 3
	channel 1, WCS_Ch1
	channel 2, WCS_Ch2
	channel 3, WCS_Ch3

WCS_Ch1::
	tempo 105
	volume 7, 7
	vibrato 6, 3, 4
	pitch_offset 3
	duty_cycle 3
	note_type 12, 12, 7
	octave 2
	sound_call WCS_Ch1_sub_2
	sound_call WCS_Ch1_sub_2
	note G_, 12
	note_type 8, 12, 1
	note G_, 2
	note G_, 2
	note G_, 2
	note_type 12, 12, 7
	note G_, 12
	note_type 8, 12, 1
	note G_, 2
	note G_, 2
	note G_, 2
	sound_call WCS_Ch1_sub_0
	sound_call WCS_Ch1_sub_0
	sound_call WCS_Ch1_sub_1
	sound_call WCS_Ch1_sub_1
	note_type 15, 6, 15
	octave 4
	note F#, 16
	note_type 12, 12, 7
	note F#, 12
	note_type 15, 6, 15
	note F_, 16
	note_type 12, 12, 7
	note F_, 12
	note_type 15, 6, 15
	note D#, 16
	note_type 12, 12, 7
	note D#, 12
	note C#, 16
	octave 3
	note A#, 8
	octave 4
	note C#, 8
	note C_, 16
	note G_, 16
WCS_Ch1_loop::
	tempo 108
	note_type 12, 12, 5
	octave 3
	sound_call WCS_Ch1_loop_sub_0
	note_type 12, 12, 1
	octave 2
	note G_, 1
	note F#, 1
	note D_, 1
	note G_, 1
	note A_, 1
	note G_, 1
	note F#, 1
	note A_, 1
	note A#, 1
	note A_, 1
	note G_, 1
	note A#, 1
	octave 3
	note C_, 1
	octave 2
	note G_, 1
	note A#, 1
	octave 3
	note D#, 1
	note_type 12, 12, 5
	sound_call WCS_Ch1_loop_sub_0
	note F#, 4
	note_type 12, 12, 7
	note G_, 12
	rest 8
	note F_, 8
	note G#, 8
	note F_, 8
	note_type 12, 12, 1
	octave 4
	note C_, 1
	note C_, 1
	rest 6
	note C_, 1
	note C_, 1
	rest 6
	note C_, 1
	note C_, 1
	rest 6
	note C_, 1
	note C_, 1
	rest 6
	octave 5
	note C_, 1
	note C_, 1
	rest 2
	note_type 12, 12, 3
	octave 2
	note A#, 4
	octave 5
	note_type 12, 12, 1
	note C_, 1
	note C_, 1
	rest 2
	note_type 12, 12, 3
	octave 3
	note C#, 4
	note_type 12, 12, 1
	octave 5
	note C_, 1
	note C_, 1
	rest 2
	note_type 12, 12, 3
	octave 2
	note A#, 4
	octave 5
	note_type 12, 12, 1
	note C_, 1
	note_type 12, 12, 5
	octave 3
	note C_, 7
	note_type 12, 12, 1
	note C_, 1
	octave 2
	note B_, 1
	octave 3
	note C_, 1
	note C#, 1
	note D_, 1
	note C#, 1
	note D_, 1
	note D#, 1
	note E_, 1
	note D#, 1
	note E_, 1
	note F#, 1
	note G_, 1
	note F#, 1
	note F_, 1
	note D#, 1
	note G_, 1
	octave 2
	note B_, 1
	octave 3
	note C_, 1
	note D_, 1
	note D#, 1
	note D_, 1
	note D#, 1
	note F_, 1
	note G_, 1
	note F#, 1
	note G_, 1
	note G#, 1
	octave 4
	note C_, 1
	octave 3
	note G_, 1
	note F_, 1
	note D#, 1
	note C#, 1
	note C_, 1
	note C#, 1
	note D_, 1
	note D#, 1
	note D_, 1
	note D#, 1
	note E_, 1
	note F_, 1
	note E_, 1
	note F_, 1
	note G_, 1
	note G#, 1
	note G_, 1
	note F#, 1
	note E_, 1
	note G#, 1
	note C_, 1
	note C#, 1
	note D#, 1
	note E_, 1
	note D#, 1
	note E_, 1
	note F#, 1
	note G#, 1
	note G_, 1
	note G#, 1
	note A_, 1
	octave 4
	note C#, 1
	octave 3
	note G#, 1
	note F#, 1
	note E_, 1
	note D_, 1
	note C#, 1
	note D_, 1
	note D#, 1
	note E_, 1
	note D#, 1
	note E_, 1
	note F_, 1
	note F#, 1
	note F_, 1
	note F#, 1
	note G#, 1
	note A_, 1
	note G#, 1
	note G_, 1
	note F_, 1
	note A_, 1
	note C#, 1
	note D_, 1
	note E_, 1
	note F_, 1
	note E_, 1
	note F_, 1
	note G_, 1
	note A_, 1
	note G#, 1
	note A_, 1
	note A#, 1
	octave 4
	note D_, 1
	octave 3
	note A_, 1
	note G_, 1
	note F_, 1
	note_type 12, 12, 5
	note A_, 14
	note G_, 1
	note G#, 1
	note A_, 16
	note_type 12, 6, 15
	note D_, 14
	note_type 12, 12, 1
	note C_, 1
	note D_, 1
	note D#, 1
	rest 1
	octave 2
	note A#, 1
	rest 1
	octave 3
	note D#, 1
	rest 1
	note G_, 1
	rest 1
	note D#, 1
	rest 1
	note G_, 1
	rest 1
	note A#, 1
	rest 1
	note D#, 1
	rest 1
	note_type 12, 12, 5
	note A#, 6
	note A_, 1
	note G#, 1
	note G_, 8
	note A_, 13
	rest 1
	note_type 12, 12, 1
	sound_call WCS_Ch1_loop_sub_1
	note C_, 1
	rest 1
	note F_, 1
	rest 1
	octave 4
	note C_, 1
	rest 1
	note_type 12, 12, 5
	octave 3
	note A#, 8
	octave 4
	note C#, 8
	note D#, 8
	note C#, 8
	note_type 12, 12, 5
	note C_, 14
	octave 3
	note_type 12, 12, 1
	sound_call WCS_Ch1_loop_sub_1
	note F_, 1
	rest 1
	note C_, 1
	rest 1
	note A_, 1
	rest 1
	note_type 12, 12, 5
	note A#, 2
	note A_, 2
	note G_, 2
	note A_, 2
	note A#, 2
	note G_, 2
	octave 4
	note D_, 2
	octave 3
	note A#, 2
	note_type 12, 12, 1
	note A#, 1
	rest 1
	note A_, 1
	rest 1
	note G_, 1
	rest 1
	note A_, 1
	rest 1
	note A#, 1
	rest 1
	note G_, 1
	rest 1
	octave 4
	note D_, 1
	rest 1
	octave 3
	note A#, 1
	rest 1
	note_type 12, 12, 5
	sound_call WCS_Ch1_loop_sub_0
	note_type 12, 12, 7
	note F_, 8
	note D#, 8
	note_type 12, 12, 5
	sound_call WCS_Ch1_loop_sub_0
	note_type 12, 12, 7
	note F_, 8
	note G#, 8
	note G_, 16
	octave 4
	note C_, 16
	sound_loop 0, WCS_Ch1_loop
WCS_Ch2::
	pitch_offset 1
	duty_cycle 3
	vibrato 8, 2, 5
	note_type 12, 14, 7
	octave 2
	sound_call WCS_Ch2_sub_2
	sound_call WCS_Ch2_sub_2
	note_type 12, 14, 1
	octave 3
	note A#, 1
	octave 4
	note C_, 1
	note C#, 1
	note C_, 1
	note D#, 1
	note C_, 1
	note E_, 1
	note C#, 1
	octave 3
	note A#, 1
	octave 4
	note C#, 1
	note_type 12, 14, 7
	note C_, 7
	note_type 12, 14, 2
	note C_, 2
	note C_, 2
	note C_, 2
	note C_, 2
	note C_, 2
	note C_, 2
	note C_, 3
	octave 3
	sound_call WCS_Ch2_sub_1
	sound_call WCS_Ch2_sub_1
	sound_call WCS_Ch2_sub_0
	sound_call WCS_Ch2_sub_0
	note_type 12, 14, 2
	note C#, 2
	note F#, 2
	note A#, 2
	octave 4
	note C_, 2
	note C#, 2
	note C_, 2
	octave 3
	note A#, 2
	note G#, 2
	note F#, 2
	note C#, 2
	note F#, 2
	note A#, 2
	octave 4
	note C#, 2
	note C_, 2
	octave 3
	note A#, 2
	note G#, 2
	note C_, 2
	note F_, 2
	note A_, 2
	note A#, 2
	octave 4
	note C_, 2
	octave 3
	note A#, 2
	note A_, 2
	note G_, 2
	note F_, 2
	note C_, 2
	note F_, 2
	note A_, 2
	octave 4
	note C_, 2
	octave 3
	note A#, 2
	note A_, 2
	note G_, 2
	octave 2
	note A#, 2
	octave 3
	note D#, 2
	note G_, 2
	note G#, 2
	note A#, 2
	note G#, 2
	note G_, 2
	note F_, 2
	note D#, 2
	octave 2
	note A#, 2
	octave 3
	note D#, 2
	note G_, 2
	note A#, 2
	note G#, 2
	note G_, 2
	note F_, 2
	octave 2
	note G#, 2
	octave 3
	note C#, 2
	note F_, 2
	note F#, 2
	note G#, 2
	note F#, 2
	note F_, 2
	note D#, 2
	note C#, 2
	octave 2
	note A#, 2
	octave 3
	note C#, 2
	note F_, 2
	note G#, 2
	note F#, 2
	note F_, 2
	note D#, 2
	octave 2
	note G_, 2
	octave 3
	note C_, 2
	note E_, 2
	note F_, 2
	note G_, 2
	note F_, 2
	note E_, 2
	note D_, 2
	note C_, 2
	octave 2
	note G_, 2
	octave 3
	note C_, 2
	note E_, 2
	note G_, 2
	note F_, 2
	note E_, 2
	note D_, 2
WCS_Ch2_loop::
	note_type 12, 14, 7
	sound_call WCS_Ch2_loop_sub_0
	note_type 12, 14, 1
	octave 2
	note A#, 1
	note A_, 1
	note G_, 1
	note A#, 1
	octave 3
	note C_, 1
	octave 2
	note A#, 1
	note A_, 1
	octave 3
	note C_, 1
	note D_, 1
	note C_, 1
	octave 2
	note A#, 1
	octave 3
	note D_, 1
	note D#, 1
	octave 2
	note A#, 1
	octave 3
	note D_, 1
	note G_, 1
	note_type 12, 14, 7
	sound_call WCS_Ch2_loop_sub_0
	note B_, 4
	octave 4
	note C_, 12
	octave 3
	note C_, 8
	octave 4
	note A#, 8
	octave 5
	note C#, 8
	octave 4
	note A#, 8
	sound_call WCS_Ch2_loop_sub_1
	rest 2
	note_type 12, 14, 4
	octave 3
	note C#, 4
	sound_call WCS_Ch2_loop_sub_1
	note_type 12, 14, 4
	octave 2
	note G_, 4
	note A#, 2
	note_type 12, 14, 1
	octave 4
	note C_, 1
	note C_, 1
	octave 3
	note A#, 1
	octave 4
	note C_, 1
	note C#, 1
	note C_, 1
	octave 3
	note A#, 1
	octave 4
	note C#, 1
	note C_, 1
	note C_, 1
	note D_, 1
	note C#, 1
	note C_, 1
	octave 3
	note A#, 1
	octave 4
	note C_, 1
	note C#, 1
	note C_, 1
	note C_, 1
	note C#, 1
	note C_, 1
	octave 3
	note B_, 1
	note A_, 1
	note A#, 1
	note B_, 1
	octave 4
	note C_, 1
	note C_, 1
	note_type 12, 14, 4
	octave 2
	note G_, 4
	note A#, 2
	note_type 12, 14, 7
	octave 4
	note C_, 4
	note C#, 2
	note D_, 12
	note_type 12, 14, 1
	octave 3
	note G_, 2
	note G_, 2
	rest 2
	note_type 12, 14, 1
	note G_, 2
	note G_, 2
	rest 2
	note G_, 2
	note_type 12, 14, 7
	octave 4
	note C#, 4
	note D_, 2
	note D#, 12
	note_type 12, 14, 1
	octave 3
	note G#, 2
	note G#, 2
	rest 2
	note_type 12, 14, 1
	note G#, 2
	note G#, 2
	rest 2
	note G#, 2
	note_type 12, 14, 7
	octave 4
	note D_, 4
	note D#, 2
	note E_, 12
	note_type 12, 14, 1
	octave 3
	note A_, 2
	note A_, 2
	rest 2
	note_type 12, 14, 1
	note A_, 2
	note A_, 2
	rest 2
	note A_, 2
	note_type 12, 14, 7
	octave 4
	note D_, 14
	note C_, 1
	note C#, 1
	note D_, 16
	octave 3
	note_type 12, 6, 15
	note D_, 8
	note_type 12, 14, 7
	note D_, 8
	note A_, 4
	note_type 15, 14, 7
	note A#, 16
	note_type 12, 14, 7
	rest 8
	octave 4
	note C_, 16
	octave 3
	note F_, 16
	octave 4
	note C#, 8
	note F#, 8
	note G#, 8
	note F#, 8
	note_type 15, 14, 7
	note F_, 16
	note_type 12, 14, 7
	rest 12
	note_type 12, 14, 2
	octave 3
	note A#, 2
	note A_, 2
	note G_, 2
	note A_, 2
	note A#, 2
	note G_, 2
	octave 4
	note D_, 2
	octave 3
	note A#, 2
	note_type 12, 14, 1
	note A#, 1
	rest 1
	note A_, 1
	rest 1
	note G_, 1
	rest 1
	note A_, 1
	rest 1
	note A#, 1
	rest 1
	note G_, 1
	rest 1
	octave 4
	note D_, 1
	rest 1
	octave 3
	note A#, 1
	rest 1
	note_type 12, 14, 7
	sound_call WCS_Ch2_loop_sub_0
	note A#, 8
	note G#, 6
	note A#, 1
	note B_, 1
	sound_call WCS_Ch2_loop_sub_0
	note A#, 8
	octave 4
	note C#, 8
	note C_, 16
	note F#, 4
	note_type 12, 14, 0
	note G_, 3
	note_type 12, 14, 7
	note G_, 9
	sound_loop 0, WCS_Ch2_loop
	
WCS_WAVE_VOLUME equ 1
WCS_WAVE_WHICH  equ 9

WCS_Ch3::
	transpose 1, 0
	vibrato 15, 8, 4
	note_type 9, WCS_WAVE_VOLUME, WCS_WAVE_WHICH
	octave 3
	sound_call WCS_Ch3_sub_1
	note_type 9, WCS_WAVE_VOLUME, WCS_WAVE_WHICH
	sound_call WCS_Ch3_sub_1
	note_type 11, WCS_WAVE_VOLUME, WCS_WAVE_WHICH
	note G_, 16
	note_type 8, WCS_WAVE_VOLUME, WCS_WAVE_WHICH
	rest 2
	note_type 10, WCS_WAVE_VOLUME, WCS_WAVE_WHICH
	note G_, 13
	note_type 1, WCS_WAVE_VOLUME, WCS_WAVE_WHICH
	rest 14
	note G_, 7
	rest 9
	note G_, 7
	rest 9
	note G_, 7
	rest 9
	note_type 12, WCS_WAVE_VOLUME, WCS_WAVE_WHICH
	sound_call WCS_Ch3_sub_2
	octave 3
	sound_call WCS_Ch3_sub_2
	sound_call WCS_Ch3_sub_0
	sound_call WCS_Ch3_sub_0
	note_type 12, WCS_WAVE_VOLUME, WCS_WAVE_WHICH
	note F#, 16
	note G#, 8
	note F#, 8

	note F_, 16
	note C_, 8
	note F_, 8

	note D#, 16
	octave 3
	note A#, 16
	octave 4
	note C#, 16
	octave 3
	note A#, 8
	octave 4
	note C#, 8
	note C_, 16
	note C_, 16
WCS_Ch3_loop::
	octave 3
	note C_, 1
	note C_, 1
	rest 2
	octave 4
	note D_, 4
	octave 2
	note B_, 1
	note B_, 1
	rest 2
	octave 4
	note C#, 4
	octave 2
	note A#, 1
	note A#, 1
	rest 2
	octave 4
	note C_, 4
	octave 2
	note G_, 1
	note G_, 1
	rest 2
	octave 4
	note D_, 4
	note C#, 4
	octave 3
	note G_, 2
	octave 4
	sound_call WCS_Ch3_loop_sub_6
	sound_call WCS_Ch3_loop_sub_6
	note D_, 2
	octave 3
	note G_, 2
	octave 4
	sound_call WCS_Ch3_loop_sub_1
	sound_call WCS_Ch3_loop_sub_1
	sound_call WCS_Ch3_loop_sub_6
	note D_, 2
	note C_, 1
	octave 3
	note B_, 1
	note A#, 1
	octave 4
	note D_, 1
	octave 3
	note G_, 2
	octave 4
	sound_call WCS_Ch3_loop_sub_1
	note C_, 2
	octave 3
	note A#, 2
	octave 4
	note F_, 2
	octave 3
	note A#, 2
	octave 4
	note C#, 2
	octave 3
	note A#, 2
	octave 4
	note F_, 2
	note C#, 2
	note C_, 2
	octave 3
	note A#, 2
	note F_, 2
	note A#, 2
	octave 4
	note C#, 2
	note C_, 1
	sound_call WCS_Ch3_loop_sub_3
	note C_, 1
	sound_call WCS_Ch3_loop_sub_3
	sound_call WCS_Ch3_loop_sub_5
	note C_, 2
	note G_, 2
	note G#, 2
	note G_, 2
	note C#, 2
	note B_, 2
	note C#, 2
	note B_, 2
	note C#, 2
	note B_, 2
	note C#, 2
	note B_, 2
	note C#, 2
	note G#, 2
	note C#, 2
	note G#, 2
	note C#, 2
	note G#, 2
	note A#, 2
	note G#, 2
	note D_, 2
	sound_call WCS_Ch3_loop_sub_4
	note A_, 2
	note A#, 2
	sound_call WCS_Ch3_loop_sub_4
	sound_call WCS_Ch3_loop_sub_4
	note A_, 2
	sound_call WCS_Ch3_loop_sub_2
	note D#, 2
	note G_, 2
	note D#, 2
	note G_, 2
	note D#, 2
	note G_, 2
	note D#, 2
	note G_, 2
	sound_call WCS_Ch3_loop_sub_0
	octave 5
	note C_, 2
	octave 4
	sound_call WCS_Ch3_loop_sub_0
	octave 5
	note C_, 2
	octave 4
	sound_call WCS_Ch3_loop_sub_7
	sound_call WCS_Ch3_loop_sub_7
	note F#, 2
	octave 5
	note C#, 2
	note C_, 2
	note C#, 2
	octave 4
	note B_, 2
	note A#, 2
	note A_, 2
	note F#, 2
	sound_call WCS_Ch3_loop_sub_0
	octave 5
	note C_, 2
	octave 4
	sound_call WCS_Ch3_loop_sub_0
	note E_, 2
	sound_call WCS_Ch3_loop_sub_2
	sound_call WCS_Ch3_loop_sub_2
	note C_, 2
	note F_, 2
	note G_, 2
	note C_, 2
	sound_call WCS_Ch3_loop_sub_5
	sound_call WCS_Ch3_loop_sub_2
	sound_call WCS_Ch3_loop_sub_2
	sound_call WCS_Ch3_loop_sub_5
	note C_, 2
	note C#, 2
	note D#, 2
	note D_, 2
	sound_call WCS_Ch3_loop_sub_2
	note D#, 2
	note A#, 2
	note D#, 2
	note A#, 2
	note D#, 2
	note A#, 2
	note D_, 2
	note C#, 2
	note C_, 1
	note C_, 1
	rest 2
	note G_, 4
	note C_, 1
	note C_, 1
	rest 2
	note G_, 4
	note C_, 1
	note C_, 1
	rest 2
	note G_, 4
	note C_, 1
	note C_, 1
	rest 2
	note G_, 4
	sound_loop 0, WCS_Ch3_loop

WCS_Ch3_sub_0::
	octave 3
	note C_, 2
	rest 2
	octave 4
	note C_, 4
	octave 3
	note C#, 2
	rest 2
	octave 4
	note C#, 4
	octave 3
	note D#, 2
	rest 2
	octave 4
	note D#, 4
	octave 3
	note F_, 2
	rest 2
	octave 4
	note F_, 4
	sound_ret
WCS_Ch3_sub_1::
	note F_, 15
	rest 1
	note_type 1, WCS_WAVE_VOLUME, WCS_WAVE_WHICH
	note F_, 7
	rest 9
	note F_, 7
	rest 9
	note F_, 7
	rest 9
	sound_ret
WCS_Ch3_sub_2::
	note C_, 2
	rest 2
	note G_, 4
	note C#, 2
	rest 2
	note G#, 4
	note D#, 2
	rest 2
	note A#, 4
	note F_, 2
	rest 2
	octave 4
	note C_, 4
	sound_ret
WCS_Ch3_loop_sub_0::
	note F_, 2
	octave 5
	note C_, 2
	octave 4
	note F_, 2
	octave 5
	note C_, 2
	octave 4
	note F_, 2
	octave 5
	note C_, 2
	octave 4
	note F_, 2
	sound_ret
WCS_Ch3_loop_sub_1::
	note C_, 2
	octave 3
	note G_, 2
	octave 4
	note C_, 2
	octave 3
	note G_, 2
	octave 4
	note C_, 2
	octave 3
	note G_, 2
	octave 4
	note C_, 2
	octave 3
	note G_, 2
	octave 4
	sound_ret
WCS_Ch3_loop_sub_2::
	note D#, 2
	note A#, 2
	note D#, 2
	note A#, 2
	note D#, 2
	note A#, 2
	note D#, 2
	note A#, 2
	sound_ret
WCS_Ch3_loop_sub_3::
	note C_, 1
	rest 2
	octave 3
	note A#, 4
	octave 4
	note C_, 1
	note C_, 1
	rest 2
	note C#, 4
	note C_, 1
	note C_, 1
	rest 2
	octave 3
	note A#, 4
	octave 4
	note C_, 1
	rest 1
	octave 3
	note G_, 4
	note A#, 1
	rest 1
	octave 4
	sound_ret
WCS_Ch3_loop_sub_4::
	note A_, 2
	note D_, 2
	note A_, 2
	note D_, 2
	note A_, 2
	note D_, 2
	note A_, 2
	note D_, 2
	note A_, 2
	note D_, 2
	note A_, 2
	note D_, 2
	sound_ret
WCS_Ch3_loop_sub_5::
	note C_, 2
	note G_, 2
	note C_, 2
	note G_, 2
	note C_, 2
	note G_, 2
	note C_, 2
	note G_, 2
	note C_, 2
	note G_, 2
	note C_, 2
	note G_, 2
	sound_ret
WCS_Ch3_loop_sub_6::
	note D_, 2
	octave 3
	note G_, 2
	octave 4
	note D_, 2
	octave 3
	note G_, 2
	octave 4
	note D_, 2
	octave 3
	note G_, 2
	octave 4
	sound_ret
WCS_Ch3_loop_sub_7::
	note F#, 2
	octave 5
	note C#, 2
	octave 4
	note F#, 2
	octave 5
	note C#, 2
	octave 4
	sound_ret




WCS_Ch1_sub_0::
	octave 2
	note_type 12, 12, 1
	note G_, 1
	note G_, 3
	note_type 12, 12, 4
	octave 3
	note G_, 4
	note_type 12, 12, 1
	octave 2
	note G#, 1
	note G#, 3
	note_type 12, 12, 4
	octave 3
	note G#, 4
	note_type 12, 12, 1
	octave 2
	note A#, 1
	note A#, 3
	note_type 12, 12, 4
	octave 3
	note A#, 4
	note_type 12, 12, 1
	octave 3
	note C_, 1
	note C_, 3
	note_type 12, 12, 4
	octave 4
	note C_, 4
	sound_ret
WCS_Ch1_sub_1::
	note_type 12, 12, 1
	octave 3
	note C_, 1
	note C_, 3
	note_type 12, 12, 4
	octave 4
	note C_, 4
	note_type 12, 12, 1
	octave 3
	note C#, 1
	note C#, 3
	note_type 12, 12, 4
	octave 4
	note C#, 4
	note_type 12, 12, 1
	octave 3
	note D#, 1
	note D#, 3
	note_type 12, 12, 4
	octave 4
	note D#, 4
	note_type 12, 12, 1
	octave 3
	note F_, 1
	note F_, 3
	note_type 12, 12, 4
	octave 4
	note F_, 4
	sound_ret
WCS_Ch1_sub_2::
	note F_, 12
	note_type 8, 12, 1
	note F_, 2
	note F_, 2
	note F_, 2
	note_type 12, 12, 7
	sound_ret
WCS_Ch1_loop_sub_0::
	note C_, 4
	note G_, 4
	octave 2
	note B_, 4
	octave 3
	note F#, 4
	octave 2
	note A#, 4
	octave 3
	note F_, 4
	octave 2
	note G_, 4
	octave 3
	note D_, 4
	note C#, 4
	note D_, 12
	sound_ret
WCS_Ch1_loop_sub_1::
	note F_, 1
	note G_, 1
	note A_, 1
	rest 1
	note F_, 1
	rest 1
	note A_, 1
	rest 1
	octave 4
	note C_, 1
	rest 1
	octave 3
	note A_, 1
	rest 1
	sound_ret
WCS_Ch2_sub_0::
	note_type 12, 14, 2
	note G_, 1
	note_type 12, 14, 6
	note G_, 7
	note_type 12, 14, 2
	note G#, 1
	note_type 12, 14, 6
	note G#, 7
	note_type 12, 14, 2
	note A#, 1
	note_type 12, 14, 6
	note A#, 7
	note_type 12, 14, 2
	octave 4
	note C_, 1
	note_type 12, 14, 6
	note C_, 7
	octave 3
	sound_ret
WCS_Ch2_sub_1::
	note_type 12, 14, 2
	note C_, 1
	note_type 12, 14, 6
	note C_, 7
	note_type 12, 14, 2
	note C#, 1
	note_type 12, 14, 6
	note C#, 7
	note_type 12, 14, 2
	note D#, 1
	note_type 12, 14, 6
	note D#, 7
	note_type 12, 14, 2
	note F_, 1
	note_type 12, 14, 6
	note F_, 7
	sound_ret
WCS_Ch2_sub_2::
	note A#, 12
	note_type 8, 14, 1
	note A#, 2
	note A#, 2
	note A#, 2
	note_type 12, 14, 7
	sound_ret
WCS_Ch2_loop_sub_0::
	octave 4
	note C_, 8
	octave 3
	note B_, 8
	note A#, 8
	note G_, 8
	note F#, 4
	note G_, 12
	sound_ret
WCS_Ch2_loop_sub_1::
	note_type 12, 14, 1
	octave 5
	note C_, 1
	note C_, 1
	rest 2
	note_type 12, 14, 4
	octave 2
	note A#, 4
	note_type 12, 14, 1
	octave 5
	note C_, 1
	note C_, 1
	sound_ret
