; made by celadonk for pokemon fools gold :)
Music_Route32:
	musicheader 4, 1, Music_Route47_Ch1
	musicheader 1, 2, Music_Route47_Ch2
	musicheader 1, 3, Music_Route47_Ch3
	musicheader 1, 4, Music_Route47_Ch4

Music_Route47_Ch1:
	tempo 495
	volume $77
	dutycycle $2
	tone $0002
	vibrato $8, $22
	stereopanning $f0
	notetype $4, $b4
Music_Route47_branch_ee6e9:
	intensity $72
	sound_duty $2, $2, $2, $2
	octave 5
	note C_, 2
	octave 4
	note C_, 1
	note C_, 1
	octave 5
	note C_, 2
	octave 4
	note C_, 1
	note C_, 1
	octave 5
	note C_, 1
	note C_, 1
	octave 4
	note C_, 6
	octave 5
	note C_, 2
	octave 4
	note C_, 1
	note C_, 1
	octave 5
	note C_, 2
	octave 4
	note C_, 1
	note C_, 1
	octave 5
	note C_, 1
	note C_, 1
	octave 4
	note C_, 6
	octave 5
	note C_, 2
	octave 4
	note C_, 1
	note C_, 1
	octave 5
	note C_, 2
	octave 4
	note C_, 1
	note C_, 1
	octave 5
	note C_, 1
	note C_, 1
	octave 4
	note C_, 6
	octave 5
	note C_, 2
	octave 4
	note C_, 1
	note C_, 1
	octave 5
	note C_, 2
	octave 4
	note C_, 1
	note C_, 1
	octave 5
	note C_, 1
	note C_, 1
	octave 4
	note C_, 6
	intensity $85
	sound_duty $3, $3, $3, $3
	octave 3
	note C_, 2
	note C_, 1
	note C_, 1
	note E_, 2
	note C_, 2
	note F_, 2
	note C_, 2
	note A_, 2
	note C_, 2
	note C_, 2
	note C_, 1
	note C_, 1
	octave 4
	note C_, 2
	octave 3
	note A#, 2
	note A_, 2
	note G_, 2
	note F_, 2
	note G_, 2
	note F_, 2
	note C_, 1
	note C_, 1
	note C_, 2
	octave 2
	note A#, 2
	note A_, 2
	octave 3
	note C_, 1
	note C_, 1
	octave 2
	note G_, 2
	note F_, 2
	octave 3
	note D_, 2
	note C_, 2
	octave 2
	note A#, 2
	note A_, 2
	note G_, 4
	octave 3
	note C_, 2
	note D_, 2
	note E_, 2
	note C_, 1
	note C_, 1
	note F_, 2
	note G_, 2
	note A_, 2
	note C_, 1
	note C_, 1
	note G_, 2
	note F_, 2
	octave 2
	note G_, 2
	note A_, 2
	note A#, 2
	octave 3
	note C_, 2
	note C#, 2
	octave 2
	note A#, 1
	note A#, 1
	octave 3
	note C_, 2
	octave 2
	note A#, 2
	note A_, 2
	sound_duty $2, $2, $2, $2
	intensity $52
	octave 3
	note C_, 1
	note C_, 3
	octave 2
	note A_, 1
	note A_, 3
	octave 3
	note F_, 1
	note F_, 3
	note C_, 1
	note C_, 3
	note A_, 1
	note A_, 3
	note C_, 1
	note C_, 1
	octave 2
	intensity $88
	note C_, 1
	note F_, 1
	note G_, 1
	note A#, 1
	note A_, 1
	octave 3
	note C_, 1
	note F_, 1
	note E_, 1
	octave 4
	sound_duty $2, $2, $2, $2
	vibrato $10, $74
	note C_, 6
	note E_, 4
	note C_, 4
	octave 3
	note A_, 2
	octave 4
	note A_, 4
	note G_, 4
	note F_, 4
	note E_, 4
	note D_, 6
	note E_, 4
	note D_, 4
	octave 3
	note A_, 2
	octave 4
	note F_, 4
	note E_, 4
	note D_, 4
	note C_, 4
	sound_duty $3, $3, $3, $3
	vibrato $20, $44
	octave 3
	note D_, 2
	octave 2
	note A#, 2
	octave 3
	note D_, 2
	note F_, 2
	note A_, 4
	note G_, 2
	note F_, 2
	note C_, 2
	octave 2
	note G#, 2
	octave 3
	note C_, 2
	note F_, 2
	note G#, 4
	note G_, 2
	note F_, 2
	note D_, 2
	octave 2
	note A#, 2
	octave 3
	note D_, 2
	note F_, 4
	note G_, 4
	note F_, 6
	note F_, 4
	note E_, 8
;start
	intensity $72
	sound_duty $2, $2, $2, $2
	octave 5
	note C_, 2
	octave 4
	note C_, 1
	note C_, 1
	octave 5
	note C_, 2
	octave 4
	note C_, 1
	note C_, 1
	octave 5
	note C_, 1
	note C_, 1
	octave 4
	note C_, 6
	octave 5
	note C_, 2
	octave 4
	note C_, 1
	note C_, 1
	octave 5
	note C_, 2
	octave 4
	note C_, 1
	note C_, 1
	octave 5
	note C_, 1
	note C_, 1
	octave 4
	note C_, 6
	octave 5
	note C_, 2
	octave 4
	note C_, 1
	note C_, 1
	octave 5
	note C_, 2
	octave 4
	note C_, 1
	note C_, 1
	octave 5
	note C_, 1
	note C_, 1
	octave 4
	note C_, 6
	octave 5
	note C_, 2
	octave 4
	note C_, 1
	note C_, 1
	octave 5
	note C_, 2
	octave 4
	note C_, 1
	note C_, 1
	octave 5
	note C_, 1
	note C_, 1
	octave 4
	note C_, 6
	octave 5
	note C_, 2
	octave 4
	note C_, 1
	note C_, 1
	octave 5
	note C_, 2
	octave 4
	note C_, 1
	note C_, 1
	octave 5
	note C_, 1
	note C_, 1
	octave 4
	note C_, 6
	octave 5
	note C_, 2
	octave 4
	note C_, 1
	note C_, 1
	octave 5
	note C_, 2
	octave 4
	note C_, 1
	note C_, 1
	octave 5
	note C_, 1
	note C_, 1
	octave 4
	note C_, 6
;end
	;sound_duty $3, $3, $2, $2
	intensity $85
	octave 3
	note A#, 4
	note A_, 4
	note D_, 4
	note E_, 4
	note A#, 4
	note A_, 4
	octave 2
	note A#, 4
	octave 3
	note C#, 4
	loopchannel 0, Music_Route47_branch_ee6e9

Music_Route47_Ch2:
	dutycycle $2
	vibrato $20, $44
	stereopanning $ff
	notetype $4, $90
Music_Route47_branch_ee75e:
	sound_duty $2, $2, $2, $2
	intensity $88
	octave 2
	vibrato $10, $74
	note C_, 1
	note F_, 1
	note G_, 1
	note A#, 1
	note A_, 1
	octave 3
	note C_, 1
	note F_, 7
	note E_, 1
	note F_, 1
	note G_, 1
	note F_, 4
	octave 4
	note C_, 5
	octave 3
	note A#, 1
	note A_, 1
	note A#, 1
	note A_, 1
	note G_, 1
	note F_, 1
	note E_, 1
	note F_, 1
	note G_, 1
	note F_, 1
	note C_, 5
	note F_, 1
	note E_, 1
	note D_, 1
	note E_, 1
	note F_, 2
	note C_, 2
	octave 2
	note A#, 1
	octave 3
	note C_, 1
	note F_, 3
	note E_, 1
	note F_, 1
	note G_, 1
	note F_, 4
	note G_, 4
	octave 3
	intensity $86
	note A_, 4
	sound_duty $3, $3, $3, $3
	intensity $88
	vibrato $10, $74
	note G_, 4
	note A_, 4
	octave 4
	note C_, 4
	note F_, 8
	note C_, 2
	octave 3
	note A#, 2
	note A_, 2
	note A#, 2
	octave 4
	note C_, 4
	octave 3
	note F_, 8
	note E_, 2
	note F_, 2
	note G_, 4
	note D_, 4
	note F_, 2
	note E_, 2
	note F_, 2
	note G_, 2
	octave 4
	note C_, 8
	note F_, 4
	note C_, 4
	octave 3
	note A#, 2
	note A_, 2
	note G_, 2
	note F_, 2
	note G_, 8
	note F_, 16
	note __, 12
	octave 4
	sound_duty $2, $2, $2, $2
	vibrato $10, $74
	note C_, 4
	note F_, 6
	note G_, 4
	note F_, 4
	note C_, 2
	octave 5
	note C_, 4
	octave 4
	note A#, 4
	note A_, 4
	note G_, 4
	note F_, 6
	note G_, 4
	note F_, 4
	note C_, 2
	note A_, 4
	note G_, 4
	note F_, 4
	note E_, 4
	note D_, 6
	note F_, 4
	note E_, 4
	note F_, 2
	note C_, 6
	note F_, 4
	note E_, 4
	note F_, 2
	note G#, 4
	note A#, 4
	octave 5
	note C_, 4
	octave 4
	note C_, 4
	note F_, 4
	note E_, 4
	note A_, 4
	note G_, 4
	sound_duty $1, $1, $1, $1
	vibrato $10, $74
	octave 3
	note F_, 6
	note G_, 4
	note F_, 4
	note C_, 2
	octave 4
	note C_, 4
	octave 3
	note A_, 4
	octave 4
	note D_, 4
	note E_, 4
	note F_, 6
	octave 3
	note F_, 4
	note G_, 4
	note F_, 2
	octave 4
	note C_, 4
	octave 3
	note A#, 4
	note F_, 4
	note C#, 4
	note C_, 6
	note F_, 6
	note A#, 6
	octave 4
	note C_, 6
	note F_, 4
	octave 3
	note F_, 4
	octave 5
	intensity $85
	;sound_duty $3, $3, $2, $2
	note D_, 4
	note C_, 4
	octave 4
	note F_, 4
	note G_, 4
	octave 5
	note C#, 4
	octave 4
	note A#, 4
	note D_, 4
	note E_, 4
	loopchannel 0, Music_Route47_branch_ee75e

Music_Route47_Ch3:
	stereopanning $f
	notetype $4, $16
Music_Route47_branch_ee7d0:
	octave 2
	note F_, 6
	note C_, 2
	note F_, 4
	note A_, 2
	note F_, 2
	note A#, 6
	note F_, 2
	note A#, 2
	note F_, 2
	octave 3
	note C_, 2
	note C#, 2
	note D_, 6
	octave 2
	note A_, 2
	octave 3
	note D_, 4
	note C_, 4
	octave 2
	note G#, 6
	note F_, 2
	note A#, 2
	note F_, 2
	octave 3
	note C_, 4
	octave 2
	note F_, 6
	note C_, 2
	note A_, 3
	note A#, 3
	octave 3
	note C_, 2
	octave 2
	note A#, 6
	note F_, 2
	octave 3
	note C_, 4
	note C_, 2
	note C#, 2
	note D_, 6
	octave 2
	note G_, 2
	note A_, 4
	note A#, 2
	octave 3
	note C_, 2
	octave 2
	note A#, 4
	note G_, 4
	octave 3
	note C_, 4
	octave 2
	note A#, 4
	note A_, 4
	octave 3
	note F_, 2
	note E_, 2
	note D_, 4
	note C_, 2
	octave 2
	note A_, 2
	note G_, 6
	note G_, 2
	note A#, 4
	note A_, 2
	note G_, 2
	note F_, 2
	note __, 4
	note C_, 2
	note F_, 2
	note __, 4
	note C_, 2
	note F_, 2
	note __, 4
	note C_, 2
	note C_, 4
	octave 3
	note C_, 4
	octave 2
	note F_, 16
	note A_, 16
	octave 3
	note D_, 16
	octave 2
	note B_, 10
	note G_, 2
	octave 3
	note G_, 2
	note F_, 2
	octave 2
	note A#, 6
	note F_, 2
	note A#, 3
	note A#, 3
	note A_, 2
	note G#, 6
	note F_, 2
	note A_, 2
	note G_, 2
	note F_, 2
	note C_, 2
	note A#, 6
	note G_, 2
	note A#, 4
	note A#, 2
	note B_, 2
	octave 3
	note C_, 6
	note C_, 2
	octave 2
	note C_, 4
	note C_, 4
	note F_, 6
	note C_, 2
	note F_, 3
	note G_, 3
	note F_, 2
	note D_, 6
	note F_, 2
	note C_, 4
	note F_, 2
	note G_, 2
	octave 1
	note B_, 4
	octave 2
	note F_, 2
	note G_, 2
	octave 3
	note D_, 2
	note C_, 2
	octave 2
	note B_, 2
	note F_, 2
	octave 1
	note A#, 6
	octave 2
	note F_, 2
	note A_, 3
	note G_, 3
	note F_, 2
	octave 1
	note A_, 6
	octave 2
	note F_, 2
	octave 3
	note C_, 2
	octave 2
	note A#, 4
	note A_, 2
	note D_, 6
	note C_, 2
	note D_, 2
	note F_, 2
	note A_, 2
	note G_, 2
	octave 1
	note G_, 8
	note G_, 3
	note A_, 3
	note A#, 2
	octave 2
	note C_, 16
	loopchannel 0, Music_Route47_branch_ee7d0

Music_Route47_Ch4:
	stereopanning $f0
	togglenoise $3
	notetype $4
Music_Route47_branch_ee83b:
	callchannel Music_Route47_branch_ch4pa
	callchannel Music_Route47_branch_ch4pa
	callchannel Music_Route47_branch_ch4pb
	callchannel Music_Route47_branch_ch4pb
	note D_, 2
	note D_, 1
	note D_, 1
	note G_, 2
	note D_, 2
	note D_, 2
	note D_, 1
	note D_, 1
	note G_, 2
	note D_, 2
	note D_, 2
	note D_, 2
	note D_, 2
	note D_, 2
	note G_, 2
	note D_, 1
	note D_, 1
	note G_, 2
	note D_, 2
	note D_, 2
	note G_, 1
	note G_, 1
	note C_, 2
	note G_, 2
	note D_, 2
	note G_, 1
	note G_, 1
	note C_, 2
	note G_, 2
	note D_, 2
	note G_, 1
	note G_, 1
	note C_, 2
	note G_, 2
	note G_, 2
	note D_, 2
	note C_, 2
	note D_, 1
	note D_, 1
	notetype $8
	note __, 8
	note __, 8
	note __, 8
	note __, 4
	notetype $4
	note D_, 2
	note D_, 1
	note D_, 1
	note G_, 2
	note D_, 2
	note B_, 6
	note D_, 2
	note B_, 3
	note B_, 3
	note D_, 2
	note B_, 6
	note D_, 2
	note B_, 3
	note B_, 3
	note D_, 2
	note G_, 2
	note D_, 1
	note D_, 1
	note G_, 2
	note D_, 2
	note G_, 1
	note G_, 1
	note D_, 2
	note G_, 2
	note D_, 2
	note G_, 2
	note D_, 1
	note D_, 1
	note G_, 2
	note D_, 2
	note G_, 2
	note D_, 1
	note D_, 1
	note G_, 2
	note D_, 2
	callchannel Music_Route47_branch_ch4pa
	callchannel Music_Route47_branch_ch4pa
	callchannel Music_Route47_branch_ch4pa
	note B_, 8
	note B_, 3
	note D_, 3
	note D_, 2
	note B_, 8
	note D_, 2
	note D_, 1
	note D_, 1
	note G_, 2
	note D_, 2
	loopchannel 0, Music_Route47_branch_ee83b

Music_Route47_branch_ch4pa:
	note D_, 2
	note D_, 1
	note D_, 1
	note G_, 2
	note D_, 2
	note D_, 1
	note D_, 1
	note F#, 6
	note D_, 2
	note D_, 1
	note D_, 1
	note G_, 2
	note D_, 2
	note D_, 1
	note D_, 1
	note F#, 3
	note D_, 1
	note D_, 1
	note D_, 1
	endchannel

Music_Route47_branch_ch4pb:
	note D_, 2
	note D_, 1
	note D_, 1
	note G_, 2
	note D_, 2
	note G_, 2
	note D_, 2
	note D_, 4
	note D_, 2
	note D_, 1
	note D_, 1
	note G_, 2
	note D_, 2
	note G_, 2
	note D_, 2
	note D_, 2
	note D_, 1
	note D_, 1
	endchannel
	
